# xmcd CD database file
#
# Track frame offsets:
#	150
#	21532
#	38470
#	59415
#	83090
#	102666
#	127166
#	146778
#	166230
#	184676
#	207044
#	225074
#	245278
#
# Disc length: 3495 seconds
#
# Revision: 1
# Processed by: cddbd v1.5.2PL0 Copyright (c) Steve Scherf et al.
# Submitted via: CDex 1.70beta2
#
DISCID=aa0da50d
DTITLE=竹井詩織里 - Takei Shiori
DYEAR=1900
DGENRE=Jazz
TTITLE0=静かなるメロディー
TTITLE1=君に恋してる
TTITLE2=君を知らない街へ
TTITLE3=つながり
TTITLE4=世界 止めて
TTITLE5=桜色
TTITLE6=きっともう恋にはならない
TTITLE7=Like a little love
TTITLE8=夢のつづき
TTITLE9=Cherish you
TTITLE10=hide and seek
TTITLE11=春が通り過ぎる
TTITLE12=桜色 -a cappella ver.-
EXTD=
EXTT0=
EXTT1=
EXTT2=
EXTT3=
EXTT4=
EXTT5=
EXTT6=
EXTT7=
EXTT8=
EXTT9=
EXTT10=
EXTT11=
EXTT12=
PLAYORDER=
